<?xml version="1.0"?>
<svg xmlns="http://www.w3.org/2000/svg" xmlns:xlink="http://www.w3.org/1999/xlink" xmlns:svgjs="http://svgjs.com/svgjs" version="1.1" width="512" height="512" x="0" y="0" viewBox="0 0 64 64" style="enable-background:new 0 0 512 512" xml:space="preserve" class=""><g><g xmlns="http://www.w3.org/2000/svg" id="outline"><path d="M57.707,3.293A1,1,0,0,0,57,3H7a1,1,0,0,0-.707.293l-4,4A1,1,0,0,0,2,8V56a1,1,0,0,0,.293.707l4,4A1,1,0,0,0,7,61H57a1,1,0,0,0,.707-.293l4-4A1,1,0,0,0,62,56V8a1,1,0,0,0-.293-.707ZM60,55.586,56.586,59H7.414L4,55.586V8.414L7.414,5H56.586L60,8.414Z" fill="#212529" data-original="#000000" style="" class=""/><path d="M8,7A1,1,0,0,0,7,8V56a1,1,0,0,0,1,1H56a1,1,0,0,0,1-1V8a1,1,0,0,0-1-1Zm7,48H9V49h6Zm0-8H9V41h6Zm0-8H9V33h6Zm0-8H9V25h6Zm0-8H9V17h6Zm0-8H9V9h6Zm8,40H17V49h6Zm0-8H17V41h6Zm0-8H17V33h6Zm0-8H17V25h6Zm0-8H17V17h6Zm0-8H17V9h6Zm8,40H25V49h6Zm0-8H25V41h6Zm0-8H25V33h6Zm0-8H25V25h6Zm0-8H25V17h6Zm0-8H25V9h6Zm8,40H33V49h6Zm0-8H33V41h6Zm0-8H33V33h6Zm0-8H33V25h6Zm0-8H33V17h6Zm0-8H33V9h6Zm8,40H41V49h6Zm0-8H41V41h6Zm0-8H41V33h6Zm0-8H41V25h6Zm0-8H41V17h6Zm0-8H41V9h6Zm8,40H49V49h6Zm0-8H49V41h6Zm0-8H49V33h6Zm0-8H49V25h6Zm0-8H49V17h6Zm0-8H49V9h6Z" fill="#212529" data-original="#000000" style="" class=""/></g></g></svg>
